<svg width="27" height="37" viewBox="0 0 27 37" fill="none" xmlns="http://www.w3.org/2000/svg">
<g clip-path="url(#clip0_54_1214)">
<path d="M26.3554 36.7H0V7.94873H8.84597V8.32904C8.84597 8.89839 8.95812 9.46216 9.176 9.98817C9.39388 10.5142 9.71323 10.9921 10.1158 11.3947C10.5184 11.7973 10.9964 12.1167 11.5224 12.3345C12.0484 12.5524 12.6121 12.6646 13.1815 12.6646C13.7508 12.6646 14.3146 12.5524 14.8406 12.3345C15.3666 12.1167 15.8446 11.7973 16.2472 11.3947C16.6498 10.9921 16.9691 10.5142 17.187 9.98817C17.4049 9.46216 17.517 8.89839 17.517 8.32904V7.94873H26.3554V36.7ZM0.760617 35.9394H25.5948V8.70935H18.2624C18.176 9.99903 17.6027 11.2077 16.6586 12.0906C15.7146 12.9735 14.4703 13.4647 13.1777 13.4647C11.8851 13.4647 10.6408 12.9735 9.69676 12.0906C8.7527 11.2077 8.17941 9.99903 8.09296 8.70935H0.760617V35.9394Z" fill="#172332"/>
<path d="M17.3953 9.08203H8.60254V9.84265H17.3953V9.08203Z" fill="#172332"/>
<path d="M13.5619 7.09717H12.8013V9.46269H13.5619V7.09717Z" fill="#172332"/>
<path d="M13.3944 7.92606C12.6799 7.92606 11.9813 7.71416 11.3872 7.31717C10.793 6.92018 10.33 6.35591 10.0565 5.69574C9.78306 5.03556 9.71151 4.30912 9.85092 3.60828C9.99032 2.90744 10.3344 2.26368 10.8397 1.7584C11.345 1.25312 11.9887 0.909024 12.6896 0.769618C13.3904 0.630213 14.1169 0.701761 14.777 0.975215C15.4372 1.24867 16.0015 1.71175 16.3985 2.30589C16.7955 2.90003 17.0074 3.59856 17.0074 4.31313H16.2467C16.2467 3.74899 16.0795 3.19753 15.766 2.72847C15.4526 2.25941 15.0072 1.89382 14.486 1.67793C13.9648 1.46205 13.3913 1.40556 12.838 1.51562C12.2847 1.62568 11.7764 1.89733 11.3775 2.29624C10.9786 2.69514 10.707 3.20337 10.5969 3.75667C10.4869 4.30996 10.5433 4.88347 10.7592 5.40466C10.9751 5.92585 11.3407 6.37132 11.8098 6.68474C12.2788 6.99816 12.8303 7.16544 13.3944 7.16544V7.92606Z" fill="#172332"/>
</g>
<defs>
<clipPath id="clip0_54_1214">
<rect width="26.3554" height="36" fill="white" transform="translate(0 0.700195)"/>
</clipPath>
</defs>
</svg>
