<svg width="16" height="17" viewBox="0 0 16 17" fill="none" xmlns="http://www.w3.org/2000/svg">
<g clip-path="url(#clip0_54_1229)">
<path d="M12.8888 10.6209C12.3847 10.6213 11.8883 10.7444 11.4425 10.9795C10.9966 11.2146 10.6146 11.5546 10.3295 11.9703L5.99012 10.0109C6.29833 9.26669 6.29952 8.43073 5.99345 7.68561L10.3268 5.71627C10.7494 6.32744 11.377 6.76691 12.0958 6.95497C12.8147 7.14302 13.5771 7.06721 14.2449 6.74127C14.9126 6.41534 15.4414 5.86087 15.7353 5.17845C16.0293 4.49603 16.0689 3.73085 15.847 3.02172C15.6251 2.31259 15.1564 1.70647 14.5259 1.31331C13.8954 0.920148 13.1449 0.765987 12.4105 0.878789C11.6761 0.991592 11.0064 1.36389 10.5229 1.92814C10.0395 2.4924 9.7743 3.21124 9.77545 3.95427C9.77828 4.13014 9.79612 4.30544 9.82878 4.47827L5.22212 6.57161C4.77968 6.15708 4.22579 5.88083 3.6285 5.77678C3.03121 5.67273 2.41654 5.74542 1.85999 5.98591C1.30344 6.2264 0.829268 6.62423 0.495715 7.13051C0.162163 7.6368 -0.0162385 8.22949 -0.0175706 8.83577C-0.0189027 9.44205 0.156892 10.0355 0.488217 10.5433C0.819542 11.051 1.29197 11.4509 1.84745 11.6939C2.40293 11.9368 3.01728 12.0122 3.61502 11.9108C4.21276 11.8093 4.76786 11.5355 5.21212 11.1229L9.83078 13.2083C9.7987 13.3809 9.78109 13.556 9.77812 13.7316C9.77799 14.347 9.96037 14.9487 10.3022 15.4604C10.644 15.9722 11.1299 16.3711 11.6985 16.6066C12.267 16.8422 12.8927 16.9039 13.4963 16.7839C14.0999 16.6638 14.6543 16.3675 15.0895 15.9323C15.5247 15.4971 15.821 14.9427 15.941 14.3391C16.0611 13.7355 15.9994 13.1099 15.7638 12.5413C15.5282 11.9728 15.1294 11.4868 14.6176 11.145C14.1058 10.8032 13.5042 10.6208 12.8888 10.6209ZM12.8888 2.17627C13.2405 2.17614 13.5843 2.28031 13.8768 2.47559C14.1692 2.67088 14.3972 2.94852 14.5319 3.2734C14.6666 3.59827 14.7019 3.95579 14.6334 4.30073C14.5648 4.64568 14.3956 4.96255 14.1469 5.21127C13.8983 5.46 13.5815 5.6294 13.2366 5.69806C12.8917 5.76672 12.5341 5.73155 12.2092 5.59699C11.8843 5.46244 11.6065 5.23455 11.4111 4.94215C11.2157 4.64974 11.1115 4.30596 11.1115 3.95427C11.1118 3.48294 11.2992 3.03101 11.6324 2.69766C11.9656 2.36432 12.4175 2.1768 12.8888 2.17627ZM3.11145 10.6209C2.75977 10.6211 2.41594 10.5169 2.12347 10.3216C1.83099 10.1263 1.60299 9.84869 1.46832 9.52381C1.33364 9.19894 1.29834 8.84142 1.36687 8.49648C1.4354 8.15153 1.60468 7.83466 1.85331 7.58594C2.10194 7.33721 2.41875 7.16781 2.76367 7.09915C3.10859 7.03049 3.46612 7.06566 3.79104 7.20022C4.11597 7.33477 4.39369 7.56266 4.58909 7.85507C4.78449 8.14747 4.88878 8.49125 4.88878 8.84294C4.88826 9.31422 4.70085 9.76605 4.36767 10.0994C4.03449 10.4327 3.58273 10.6202 3.11145 10.6209ZM12.8888 15.5096C12.5371 15.5096 12.1934 15.4053 11.901 15.21C11.6086 15.0146 11.3807 14.7369 11.2461 14.412C11.1116 14.0871 11.0763 13.7296 11.1449 13.3847C11.2136 13.0398 11.3829 12.723 11.6315 12.4744C11.8802 12.2257 12.197 12.0564 12.5419 11.9878C12.8868 11.9192 13.2443 11.9544 13.5692 12.0889C13.8941 12.2235 14.1718 12.4514 14.3671 12.7438C14.5625 13.0362 14.6668 13.38 14.6668 13.7316C14.6664 14.2031 14.479 14.6551 14.1456 14.9885C13.8123 15.3218 13.3602 15.5093 12.8888 15.5096Z" fill="#172332"/>
</g>
<defs>
<clipPath id="clip0_54_1229">
<rect width="16" height="16" fill="white" transform="translate(0 0.842773)"/>
</clipPath>
</defs>
</svg>
