<svg width="36" height="22" viewBox="0 0 36 22" fill="none" xmlns="http://www.w3.org/2000/svg">
<g clip-path="url(#clip0_54_1221)">
<path d="M0 0.213867V18.6205H3.54404C3.51418 18.3727 3.51418 18.1222 3.54404 17.8744H0.746114V0.959981H24.383V15.3003C24.6308 15.2704 24.8813 15.2704 25.1291 15.3003V0.213867H0ZM9.46819 17.8744C9.49804 18.1222 9.49804 18.3727 9.46819 18.6205H21.8015C21.7716 18.3727 21.7716 18.1222 21.8015 17.8744H9.46819Z" fill="#172332"/>
<path d="M31.6278 5.61572H24.3831V15.3152C24.6309 15.2853 24.8814 15.2853 25.1292 15.3152V6.36184H31.6278C32.5889 6.36381 33.5101 6.74648 34.1897 7.42608C34.8693 8.10568 35.252 9.02685 35.2539 9.98795V17.8744H27.7107C27.7406 18.1222 27.7406 18.3727 27.7107 18.6205H36.0001V9.98795C35.9981 8.82897 35.5368 7.71802 34.7173 6.8985C33.8978 6.07897 32.7868 5.6177 31.6278 5.61572Z" fill="#172332"/>
<path d="M10.2143 17.8744C10.0997 16.9738 9.66064 16.1459 8.97938 15.5459C8.29812 14.9458 7.42143 14.6147 6.51359 14.6147C5.60574 14.6147 4.72905 14.9458 4.04779 15.5459C3.36654 16.1459 2.92747 16.9738 2.81286 17.8744C2.80544 17.9986 2.80544 18.1232 2.81286 18.2474C2.80522 18.3717 2.80522 18.4963 2.81286 18.6205C2.92747 19.5211 3.36654 20.349 4.04779 20.949C4.72905 21.5491 5.60574 21.8801 6.51359 21.8801C7.42143 21.8801 8.29812 21.5491 8.97938 20.949C9.66064 20.349 10.0997 19.5211 10.2143 18.6205C10.222 18.4963 10.222 18.3717 10.2143 18.2474C10.2217 18.1232 10.2217 17.9986 10.2143 17.8744ZM6.52851 21.2244C5.7987 21.2304 5.09201 20.9687 4.54207 20.4889C3.99214 20.0091 3.63708 19.3444 3.54405 18.6205C3.5142 18.3727 3.5142 18.1222 3.54405 17.8744C3.64542 17.163 4.00007 16.512 4.54284 16.0411C5.08562 15.5702 5.78008 15.3109 6.49867 15.3109C7.21725 15.3109 7.91171 15.5702 8.45449 16.0411C8.99727 16.512 9.35191 17.163 9.45328 17.8744C9.48313 18.1222 9.48313 18.3727 9.45328 18.6205C9.36158 19.3342 9.01512 19.9907 8.47768 20.4692C7.94025 20.9477 7.24803 21.2159 6.52851 21.2244Z" fill="#172332"/>
<path d="M28.4567 17.8743C28.3671 17.0232 27.9875 16.2287 27.3816 15.6242C26.7758 15.0197 25.9804 14.6419 25.1291 14.5541C24.8813 14.5243 24.6308 14.5243 24.383 14.5541C23.5316 14.6419 22.7363 15.0197 22.1304 15.6242C21.5245 16.2287 21.1449 17.0232 21.0553 17.8743C21.0479 17.9986 21.0479 18.1232 21.0553 18.2474C21.0476 18.3716 21.0476 18.4962 21.0553 18.6205C21.1699 19.521 21.609 20.3489 22.2902 20.949C22.9715 21.549 23.8482 21.8801 24.756 21.8801C25.6639 21.8801 26.5406 21.549 27.2218 20.949C27.9031 20.3489 28.3421 19.521 28.4567 18.6205C28.4644 18.4962 28.4644 18.3716 28.4567 18.2474C28.4642 18.1232 28.4642 17.9986 28.4567 17.8743ZM24.7262 21.2244C23.9964 21.2303 23.2897 20.9687 22.7397 20.4888C22.1898 20.009 21.8347 19.3443 21.7417 18.6205C21.7119 18.3726 21.7119 18.1221 21.7417 17.8743C21.8271 17.2203 22.1267 16.613 22.5938 16.1473C23.0608 15.6816 23.669 15.3837 24.3233 15.3002C24.5711 15.2704 24.8216 15.2704 25.0694 15.3002C25.7236 15.3837 26.3318 15.6816 26.7989 16.1473C27.2659 16.613 27.5656 17.2203 27.6509 17.8743C27.6808 18.1221 27.6808 18.3726 27.6509 18.6205C27.56 19.3292 27.2178 19.9817 26.6866 20.4595C26.1554 20.9374 25.4704 21.2088 24.756 21.2244H24.7262Z" fill="#172332"/>
</g>
<defs>
<clipPath id="clip0_54_1221">
<rect width="36" height="21.7567" fill="white" transform="translate(0 0.213867)"/>
</clipPath>
</defs>
</svg>
