<svg width="28" height="29" viewBox="0 0 28 29" fill="none" xmlns="http://www.w3.org/2000/svg">
<g clip-path="url(#clip0_50_125)">
<path d="M14.0408 27.382L0.764138 14.0995C0.676638 13.9537 0.594971 13.802 0.519138 13.6445C-0.0175288 12.577 -0.280029 11.4162 -0.250862 10.2029C-0.157529 6.40537 2.88747 3.28453 6.68497 3.10953C7.9508 3.0512 9.19914 3.3137 10.3016 3.8737C11.9233 4.69037 13.1833 6.07287 13.8366 7.76453C13.8833 7.88703 13.9941 7.89287 14.0291 7.89287C14.0641 7.89287 14.175 7.8812 14.2216 7.76453C14.875 6.06703 16.135 4.68453 17.7625 3.8737C18.83 3.3312 20.0433 3.06287 21.2566 3.10953C25.0425 3.23203 28.1225 6.29453 28.2741 10.0862C28.3208 11.317 28.0583 12.542 27.5158 13.6329C27.4108 13.837 27.3058 14.0295 27.1833 14.2162L27.1425 14.2629L14.0408 27.382ZM1.2483 13.767L14.0408 26.5595L26.7225 13.872C26.8275 13.7087 26.915 13.5395 27.0083 13.3645C27.51 12.3612 27.7491 11.2354 27.7083 10.1037C27.5741 6.67953 24.675 3.8037 21.2508 3.68703C20.1191 3.65203 19.0166 3.89703 18.0366 4.39287C16.5375 5.13953 15.3825 6.4112 14.7816 7.97453C14.665 8.27787 14.3733 8.4762 14.0466 8.4762C13.7141 8.4762 13.4283 8.27787 13.3058 7.97453C12.705 6.41703 11.55 5.14537 10.0508 4.39287C9.0358 3.87953 7.88664 3.63453 6.7258 3.69287C3.28414 3.85037 0.419971 6.7787 0.338305 10.2145C0.309138 11.3287 0.548304 12.3962 1.04414 13.382C1.1083 13.522 1.1783 13.6445 1.2483 13.767Z" fill="black"/>
</g>
<defs>
<clipPath id="clip0_50_125">
<rect width="28" height="28" fill="white" transform="translate(0 0.286133)"/>
</clipPath>
</defs>
</svg>
